#!OML:ASF E:\CV Data\Top Level 1\Subject 1\Session 1\player.ASF
:FULLY-SPECIFIED
:DEGREES
593
root 4.79639 17.687 14.4706 5.74864 -0.740787 -6.51707
lowerback 8.14965 -0.0151057 4.06252
upperback -0.0811247 0.495617 2.71475
thorax -4.65287 0.181823 0.479826
lowerneck -17.1275 -6.22217 -12.3188
upperneck 28.8759 -7.24018 6.55499
head 13.2941 -3.69634 3.44713
rclavicle 7.7526e-015 1.8487e-014
rhumerus -36.7008 -1.09383 -81.7577
rradius 38.464
rwrist -19.8483
rhand -26.7898 0.386923
rfingers 7.12502
rthumb -0.217117 -29.5927
lclavicle 7.7526e-015 1.8487e-014
lhumerus -38.3878 2.96265 83.1033
lradius 44.9051
lwrist 4.89157
lhand -21.154 8.10535
lfingers 7.12502
lthumb 5.22565 38.0209
rfemur -17.0214 3.84009 24.1733
rtibia 23.5419
rfoot -9.04865 -9.79257
rtoes 6.12229
lfemur -16.3321 -0.271755 -10.4329
ltibia 22.5451
lfoot -6.98744 -1.24909
ltoes -2.68184
594
root 4.79419 17.7021 14.4984 6.03041 -0.814337 -6.56302
lowerback 8.08605 0.0259316 4.06355
upperback -0.0996603 0.548529 2.74339
thorax -4.63562 0.208351 0.502836
lowerneck -17.1317 -6.21893 -12.2943
upperneck 28.9048 -7.23662 6.53407
head 13.3045 -3.69481 3.43589
rclavicle -2.18663e-015 2.48481e-014
rhumerus -36.5494 -1.27259 -81.7059
rradius 38.3653
rwrist -19.6978
rhand -26.7589 0.46585
rfingers 7.12502
rthumb -0.187202 -29.5138
lclavicle -2.18663e-015 2.48481e-014
lhumerus -38.354 3.12375 83.1012
lradius 44.9393
lwrist 6.08851
lhand -21.2479 8.28609
lfingers 7.12502
lthumb 5.13495 38.2039
rfemur -16.9582 3.82163 24.2119
rtibia 23.0056
rfoot -8.87189 -9.62529
rtoes 6.14264
lfemur -16.2643 -0.478834 -10.3559
ltibia 22.0925
lfoot -6.79283 -0.982693
ltoes -2.76995
595
root 4.7914 17.7152 14.5252 6.28727 -0.88998 -6.61022
lowerback 8.04072 0.0670491 4.0558
upperback -0.109965 0.601497 2.77263
thorax -4.62019 0.23516 0.531405
lowerneck -17.1252 -6.21412 -12.2721
upperneck 28.9212 -7.23287 6.51957
head 13.3078 -3.69267 3.42757
rclavicle -3.10601e-015 -2.3059e-014
rhumerus -36.3919 -1.51439 -81.6448
rradius 38.2488
rwrist -19.5785
rhand -26.7414 0.524277
rfingers 7.12502
rthumb -0.170359 -29.4554
lclavicle -3.10601e-015 -2.3059e-014
lhumerus -38.324 3.31136 83.0993
lradius 44.9632
lwrist 7.3576
lhand -21.3611 8.47181
lfingers 7.12502
lthumb 5.02569 38.3922
rfemur -16.9029 3.82224 24.2584
rtibia 22.5325
rfoot -8.71752 -9.49372
rtoes 6.15248
lfemur -16.2069 -0.627557 -10.2769
ltibia 21.7014
lfoot -6.63557 -0.771766
ltoes -2.85626
596
root 4.7881 17.7264 14.5513 6.51795 -0.967953 -6.66298
lowerback 8.01147 0.107325 4.04491
upperback -0.113271 0.653807 2.80362
thorax -4.60663 0.261767 0.563622
lowerneck -17.0991 -6.20614 -12.2538
upperneck 28.9234 -7.22789 6.51347
head 13.3014 -3.68958 3.42356
rclavicle -2.0276e-014 -1.03368e-014
rhumerus -36.2438 -1.81155 -81.5782
rradius 38.1308
rwrist -19.4841
rhand -26.7418 0.549964
rfingers 7.12502
rthumb -0.170731 -29.4297
lclavicle -2.0276e-014 -1.03368e-014
lhumerus -38.3038 3.53152 83.0915
lradius 44.9677
lwrist 8.58358
lhand -21.4639 8.67689
lfingers 7.12502
lthumb 4.92645 38.5996
rfemur -16.8486 3.8431 24.3166
rtibia 22.1133
rfoot -8.5824 -9.39614
rtoes 6.14453
lfemur -16.1558 -0.71715 -10.1925
ltibia 21.3692
lfoot -6.51654 -0.614099
ltoes -2.93851
597
root 4.78435 17.736 14.5771 6.72137 -1.04402 -6.72402
lowerback 7.99393 0.146261 4.0359
upperback -0.106731 0.704863 2.83671
thorax -4.58949 0.287858 0.597095
lowerneck -17.06 -6.19627 -12.2384
upperneck 28.9133 -7.22276 6.51492
head 13.2874 -3.68587 3.42305
rclavicle -1.83876e-015 3.8763e-015
rhumerus -36.1011 -2.15915 -81.5101
rradius 38.0085
rwrist -19.4175
rhand -26.768 0.548343
rfingers 7.12502
rthumb -0.196023 -29.4313
lclavicle -1.83876e-015 3.8763e-015
lhumerus -38.29 3.78016 83.0777
lradius 44.9399
lwrist 9.65407
lhand -21.5346 8.88849
lfingers 7.12502
lthumb 4.85814 38.8128
rfemur -16.7875 3.88804 24.3884
rtibia 21.7395
rfoot -8.46497 -9.33595
rtoes 6.1235
lfemur -16.1072 -0.752168 -10.1007
ltibia 21.0923
lfoot -6.43551 -0.507474
ltoes -3.02589
598
root 4.78036 17.7442 14.6026 6.90281 -1.11266 -6.79281
lowerback 7.9838 0.182618 4.03326
upperback -0.0944316 0.753317 2.87098
thorax -4.57057 0.312595 0.628525
lowerneck -17.005 -6.1862 -12.226
upperneck 28.8946 -7.2201 6.52262
head 13.2672 -3.683 3.42523
rclavicle -2.80783e-015 -1.54058e-014
rhumerus -35.9796 -2.54274 -81.4437
rradius 37.898
rwrist -19.3853
rhand -26.8149 0.524712
rfingers 7.12502
rthumb -0.241335 -29.4549
lclavicle -2.80783e-015 -1.54058e-014
lhumerus -38.2832 4.05017 83.0575
lradius 44.869
lwrist 10.4813
lhand -21.5484 9.1174
lfingers 7.12502
lthumb 4.84485 39.042
rfemur -16.7212 3.95086 24.4711
rtibia 21.4032
rfoot -8.36457 -9.30791
rtoes 6.09628
lfemur -16.0648 -0.744578 -10.003
ltibia 20.8646
lfoot -6.38565 -0.443876
ltoes -3.1283
599
root 4.77627 17.7512 14.628 7.06237 -1.17509 -6.86571
lowerback 7.97858 0.216378 4.03302
upperback -0.0748184 0.798499 2.90579
thorax -4.54688 0.335783 0.659544
lowerneck -16.9459 -6.17636 -12.2111
upperneck 28.8755 -7.21921 6.53073
head 13.2461 -3.68066 3.42688
rclavicle 4.82053e-015 7.85199e-015
rhumerus -35.8742 -2.95766 -81.3808
rradius 37.7939
rwrist -19.3709
rhand -26.8878 0.491843
rfingers 7.12502
rthumb -0.311769 -29.4877
lclavicle 4.82053e-015 7.85199e-015
lhumerus -38.285 4.33562 83.0343
lradius 44.7471
lwrist 11.0037
lhand -21.5196 9.32404
lfingers 7.12502
lthumb 4.87267 39.248
rfemur -16.6447 4.03357 24.5581
rtibia 21.0972
rfoot -8.28217 -9.30788
rtoes 6.08272
lfemur -16.0232 -0.71106 -9.90369
ltibia 20.6789
lfoot -6.36042 -0.405838
ltoes -3.23577
600
root 4.77226 17.7573 14.6534 7.20167 -1.2265 -6.93926
lowerback 7.97391 0.246606 4.03683
upperback -0.0478916 0.838947 2.9392
thorax -4.51591 0.356673 0.687391
lowerneck -16.8902 -6.16865 -12.1965
upperneck 28.8644 -7.222 6.54092
head 13.2296 -3.67974 3.42887
rclavicle -1.51822e-014 -1.98785e-016
rhumerus -35.7865 -3.38231 -81.3284
rradius 37.6992
rwrist -19.3824
rhand -26.9848 0.448903
rfingers 7.12502
rthumb -0.405433 -29.5305
lclavicle -1.51822e-014 -1.98785e-016
lhumerus -38.2922 4.62031 83.0138
lradius 44.5656
lwrist 11.1982
lhand -21.4597 9.49491
lfingers 7.12502
lthumb 4.93048 39.4175
rfemur -16.556 4.12833 24.6446
rtibia 20.8156
rfoot -8.21662 -9.32934
rtoes 6.08213
lfemur -15.9802 -0.669063 -9.80672
ltibia 20.5282
lfoot -6.35383 -0.379188
ltoes -3.36105
601
root 4.76847 17.7626 14.6788 7.32632 -1.26488 -7.01062
lowerback 7.96908 0.272099 4.0447
upperback -0.0185308 0.873192 2.96988
thorax -4.48236 0.374427 0.710865
lowerneck -16.8344 -6.1635 -12.1821
upperneck 28.8629 -7.22934 6.55222
head 13.2176 -3.68084 3.43073
rclavicle -2.03754e-014 1.63003e-014
rhumerus -35.7196 -3.80306 -81.2905
rradius 37.6116
rwrist -19.4167
rhand -27.095 0.428828
rfingers 7.12502
rthumb -0.511832 -29.5503
lclavicle -2.03754e-014 1.63003e-014
lhumerus -38.3155 4.89248 82.9995
lradius 44.3345
lwrist 11.0863
lhand -21.3946 9.62616
lfingers 7.12502
lthumb 4.99332 39.5473
rfemur -16.4592 4.22533 24.7273
rtibia 20.5519
rfoot -8.16285 -9.36319
rtoes 6.07963
lfemur -15.94 -0.639556 -9.71429
ltibia 20.4063
lfoot -6.35649 -0.346077
ltoes -3.49977
